<svg width="285" height="254" viewBox="0 0 285 254" fill="none" xmlns="http://www.w3.org/2000/svg">
<path d="M2.39249 3.24003C3.29999 3.24003 3.98999 2.62503 3.98999 1.68003C3.98999 0.735027 3.29999 0.0900269 2.39249 0.0900269C1.49249 0.0900269 0.80249 0.735027 0.80249 1.68003C0.80249 2.62503 1.49249 3.24003 2.39249 3.24003Z" fill="white"/>
<path d="M25.7784 3.24003C26.6859 3.24003 27.3759 2.62503 27.3759 1.68003C27.3759 0.735027 26.6859 0.0900269 25.7784 0.0900269C24.8784 0.0900269 24.1884 0.735027 24.1884 1.68003C24.1884 2.62503 24.8784 3.24003 25.7784 3.24003Z" fill="white"/>
<path d="M49.1644 3.24003C50.0719 3.24003 50.7619 2.62503 50.7619 1.68003C50.7619 0.735027 50.0719 0.0900269 49.1644 0.0900269C48.2644 0.0900269 47.5744 0.735027 47.5744 1.68003C47.5744 2.62503 48.2644 3.24003 49.1644 3.24003Z" fill="white"/>
<path d="M72.5503 3.24003C73.4578 3.24003 74.1478 2.62503 74.1478 1.68003C74.1478 0.735027 73.4578 0.0900269 72.5503 0.0900269C71.6503 0.0900269 70.9603 0.735027 70.9603 1.68003C70.9603 2.62503 71.6503 3.24003 72.5503 3.24003Z" fill="white"/>
<path d="M95.9362 3.24003C96.8437 3.24003 97.5337 2.62503 97.5337 1.68003C97.5337 0.735027 96.8437 0.0900269 95.9362 0.0900269C95.0362 0.0900269 94.3462 0.735027 94.3462 1.68003C94.3462 2.62503 95.0362 3.24003 95.9362 3.24003Z" fill="white"/>
<path d="M119.322 3.24003C120.23 3.24003 120.92 2.62503 120.92 1.68003C120.92 0.735027 120.23 0.0900269 119.322 0.0900269C118.422 0.0900269 117.732 0.735027 117.732 1.68003C117.732 2.62503 118.422 3.24003 119.322 3.24003Z" fill="white"/>
<path d="M142.708 3.24003C143.616 3.24003 144.306 2.62503 144.306 1.68003C144.306 0.735027 143.616 0.0900269 142.708 0.0900269C141.808 0.0900269 141.118 0.735027 141.118 1.68003C141.118 2.62503 141.808 3.24003 142.708 3.24003Z" fill="white"/>
<path d="M166.094 3.24003C167.002 3.24003 167.692 2.62503 167.692 1.68003C167.692 0.735027 167.002 0.0900269 166.094 0.0900269C165.194 0.0900269 164.504 0.735027 164.504 1.68003C164.504 2.62503 165.194 3.24003 166.094 3.24003Z" fill="white"/>
<path d="M189.48 3.24003C190.387 3.24003 191.077 2.62503 191.077 1.68003C191.077 0.735027 190.387 0.0900269 189.48 0.0900269C188.58 0.0900269 187.89 0.735027 187.89 1.68003C187.89 2.62503 188.58 3.24003 189.48 3.24003Z" fill="white"/>
<path d="M212.866 3.24003C213.773 3.24003 214.463 2.62503 214.463 1.68003C214.463 0.735027 213.773 0.0900269 212.866 0.0900269C211.966 0.0900269 211.276 0.735027 211.276 1.68003C211.276 2.62503 211.966 3.24003 212.866 3.24003Z" fill="white"/>
<path d="M236.252 3.24003C237.159 3.24003 237.849 2.62503 237.849 1.68003C237.849 0.735027 237.159 0.0900269 236.252 0.0900269C235.352 0.0900269 234.662 0.735027 234.662 1.68003C234.662 2.62503 235.352 3.24003 236.252 3.24003Z" fill="white"/>
<path d="M259.638 3.24003C260.545 3.24003 261.235 2.62503 261.235 1.68003C261.235 0.735027 260.545 0.0900269 259.638 0.0900269C258.738 0.0900269 258.048 0.735027 258.048 1.68003C258.048 2.62503 258.738 3.24003 259.638 3.24003Z" fill="white"/>
<path d="M283.024 3.24003C283.931 3.24003 284.621 2.62503 284.621 1.68003C284.621 0.735027 283.931 0.0900269 283.024 0.0900269C282.124 0.0900269 281.434 0.735027 281.434 1.68003C281.434 2.62503 282.124 3.24003 283.024 3.24003Z" fill="white"/>
<path d="M2.39249 28.24C3.29999 28.24 3.98999 27.625 3.98999 26.68C3.98999 25.735 3.29999 25.09 2.39249 25.09C1.49249 25.09 0.80249 25.735 0.80249 26.68C0.80249 27.625 1.49249 28.24 2.39249 28.24Z" fill="white"/>
<path d="M25.7784 28.24C26.6859 28.24 27.3759 27.625 27.3759 26.68C27.3759 25.735 26.6859 25.09 25.7784 25.09C24.8784 25.09 24.1884 25.735 24.1884 26.68C24.1884 27.625 24.8784 28.24 25.7784 28.24Z" fill="white"/>
<path d="M49.1644 28.24C50.0719 28.24 50.7619 27.625 50.7619 26.68C50.7619 25.735 50.0719 25.09 49.1644 25.09C48.2644 25.09 47.5744 25.735 47.5744 26.68C47.5744 27.625 48.2644 28.24 49.1644 28.24Z" fill="white"/>
<path d="M72.5503 28.24C73.4578 28.24 74.1478 27.625 74.1478 26.68C74.1478 25.735 73.4578 25.09 72.5503 25.09C71.6503 25.09 70.9603 25.735 70.9603 26.68C70.9603 27.625 71.6503 28.24 72.5503 28.24Z" fill="white"/>
<path d="M95.9362 28.24C96.8437 28.24 97.5337 27.625 97.5337 26.68C97.5337 25.735 96.8437 25.09 95.9362 25.09C95.0362 25.09 94.3462 25.735 94.3462 26.68C94.3462 27.625 95.0362 28.24 95.9362 28.24Z" fill="white"/>
<path d="M119.322 28.24C120.23 28.24 120.92 27.625 120.92 26.68C120.92 25.735 120.23 25.09 119.322 25.09C118.422 25.09 117.732 25.735 117.732 26.68C117.732 27.625 118.422 28.24 119.322 28.24Z" fill="white"/>
<path d="M142.708 28.24C143.616 28.24 144.306 27.625 144.306 26.68C144.306 25.735 143.616 25.09 142.708 25.09C141.808 25.09 141.118 25.735 141.118 26.68C141.118 27.625 141.808 28.24 142.708 28.24Z" fill="white"/>
<path d="M166.094 28.24C167.002 28.24 167.692 27.625 167.692 26.68C167.692 25.735 167.002 25.09 166.094 25.09C165.194 25.09 164.504 25.735 164.504 26.68C164.504 27.625 165.194 28.24 166.094 28.24Z" fill="white"/>
<path d="M189.48 28.24C190.387 28.24 191.077 27.625 191.077 26.68C191.077 25.735 190.387 25.09 189.48 25.09C188.58 25.09 187.89 25.735 187.89 26.68C187.89 27.625 188.58 28.24 189.48 28.24Z" fill="white"/>
<path d="M212.866 28.24C213.773 28.24 214.463 27.625 214.463 26.68C214.463 25.735 213.773 25.09 212.866 25.09C211.966 25.09 211.276 25.735 211.276 26.68C211.276 27.625 211.966 28.24 212.866 28.24Z" fill="white"/>
<path d="M236.252 28.24C237.159 28.24 237.849 27.625 237.849 26.68C237.849 25.735 237.159 25.09 236.252 25.09C235.352 25.09 234.662 25.735 234.662 26.68C234.662 27.625 235.352 28.24 236.252 28.24Z" fill="white"/>
<path d="M259.638 28.24C260.545 28.24 261.235 27.625 261.235 26.68C261.235 25.735 260.545 25.09 259.638 25.09C258.738 25.09 258.048 25.735 258.048 26.68C258.048 27.625 258.738 28.24 259.638 28.24Z" fill="white"/>
<path d="M283.024 28.24C283.931 28.24 284.621 27.625 284.621 26.68C284.621 25.735 283.931 25.09 283.024 25.09C282.124 25.09 281.434 25.735 281.434 26.68C281.434 27.625 282.124 28.24 283.024 28.24Z" fill="white"/>
<path d="M2.39249 53.24C3.29999 53.24 3.98999 52.625 3.98999 51.68C3.98999 50.735 3.29999 50.09 2.39249 50.09C1.49249 50.09 0.80249 50.735 0.80249 51.68C0.80249 52.625 1.49249 53.24 2.39249 53.24Z" fill="white"/>
<path d="M25.7784 53.24C26.6859 53.24 27.3759 52.625 27.3759 51.68C27.3759 50.735 26.6859 50.09 25.7784 50.09C24.8784 50.09 24.1884 50.735 24.1884 51.68C24.1884 52.625 24.8784 53.24 25.7784 53.24Z" fill="white"/>
<path d="M49.1644 53.24C50.0719 53.24 50.7619 52.625 50.7619 51.68C50.7619 50.735 50.0719 50.09 49.1644 50.09C48.2644 50.09 47.5744 50.735 47.5744 51.68C47.5744 52.625 48.2644 53.24 49.1644 53.24Z" fill="white"/>
<path d="M72.5503 53.24C73.4578 53.24 74.1478 52.625 74.1478 51.68C74.1478 50.735 73.4578 50.09 72.5503 50.09C71.6503 50.09 70.9603 50.735 70.9603 51.68C70.9603 52.625 71.6503 53.24 72.5503 53.24Z" fill="white"/>
<path d="M95.9362 53.24C96.8437 53.24 97.5337 52.625 97.5337 51.68C97.5337 50.735 96.8437 50.09 95.9362 50.09C95.0362 50.09 94.3462 50.735 94.3462 51.68C94.3462 52.625 95.0362 53.24 95.9362 53.24Z" fill="white"/>
<path d="M119.322 53.24C120.23 53.24 120.92 52.625 120.92 51.68C120.92 50.735 120.23 50.09 119.322 50.09C118.422 50.09 117.732 50.735 117.732 51.68C117.732 52.625 118.422 53.24 119.322 53.24Z" fill="white"/>
<path d="M142.708 53.24C143.616 53.24 144.306 52.625 144.306 51.68C144.306 50.735 143.616 50.09 142.708 50.09C141.808 50.09 141.118 50.735 141.118 51.68C141.118 52.625 141.808 53.24 142.708 53.24Z" fill="white"/>
<path d="M166.094 53.24C167.002 53.24 167.692 52.625 167.692 51.68C167.692 50.735 167.002 50.09 166.094 50.09C165.194 50.09 164.504 50.735 164.504 51.68C164.504 52.625 165.194 53.24 166.094 53.24Z" fill="white"/>
<path d="M189.48 53.24C190.387 53.24 191.077 52.625 191.077 51.68C191.077 50.735 190.387 50.09 189.48 50.09C188.58 50.09 187.89 50.735 187.89 51.68C187.89 52.625 188.58 53.24 189.48 53.24Z" fill="white"/>
<path d="M212.866 53.24C213.773 53.24 214.463 52.625 214.463 51.68C214.463 50.735 213.773 50.09 212.866 50.09C211.966 50.09 211.276 50.735 211.276 51.68C211.276 52.625 211.966 53.24 212.866 53.24Z" fill="white"/>
<path d="M236.252 53.24C237.159 53.24 237.849 52.625 237.849 51.68C237.849 50.735 237.159 50.09 236.252 50.09C235.352 50.09 234.662 50.735 234.662 51.68C234.662 52.625 235.352 53.24 236.252 53.24Z" fill="white"/>
<path d="M259.638 53.24C260.545 53.24 261.235 52.625 261.235 51.68C261.235 50.735 260.545 50.09 259.638 50.09C258.738 50.09 258.048 50.735 258.048 51.68C258.048 52.625 258.738 53.24 259.638 53.24Z" fill="white"/>
<path d="M283.024 53.24C283.931 53.24 284.621 52.625 284.621 51.68C284.621 50.735 283.931 50.09 283.024 50.09C282.124 50.09 281.434 50.735 281.434 51.68C281.434 52.625 282.124 53.24 283.024 53.24Z" fill="white"/>
<path d="M2.39249 78.24C3.29999 78.24 3.98999 77.625 3.98999 76.68C3.98999 75.735 3.29999 75.09 2.39249 75.09C1.49249 75.09 0.80249 75.735 0.80249 76.68C0.80249 77.625 1.49249 78.24 2.39249 78.24Z" fill="white"/>
<path d="M25.7784 78.24C26.6859 78.24 27.3759 77.625 27.3759 76.68C27.3759 75.735 26.6859 75.09 25.7784 75.09C24.8784 75.09 24.1884 75.735 24.1884 76.68C24.1884 77.625 24.8784 78.24 25.7784 78.24Z" fill="white"/>
<path d="M49.1644 78.24C50.0719 78.24 50.7619 77.625 50.7619 76.68C50.7619 75.735 50.0719 75.09 49.1644 75.09C48.2644 75.09 47.5744 75.735 47.5744 76.68C47.5744 77.625 48.2644 78.24 49.1644 78.24Z" fill="white"/>
<path d="M72.5503 78.24C73.4578 78.24 74.1478 77.625 74.1478 76.68C74.1478 75.735 73.4578 75.09 72.5503 75.09C71.6503 75.09 70.9603 75.735 70.9603 76.68C70.9603 77.625 71.6503 78.24 72.5503 78.24Z" fill="white"/>
<path d="M95.9362 78.24C96.8437 78.24 97.5337 77.625 97.5337 76.68C97.5337 75.735 96.8437 75.09 95.9362 75.09C95.0362 75.09 94.3462 75.735 94.3462 76.68C94.3462 77.625 95.0362 78.24 95.9362 78.24Z" fill="white"/>
<path d="M119.322 78.24C120.23 78.24 120.92 77.625 120.92 76.68C120.92 75.735 120.23 75.09 119.322 75.09C118.422 75.09 117.732 75.735 117.732 76.68C117.732 77.625 118.422 78.24 119.322 78.24Z" fill="white"/>
<path d="M142.708 78.24C143.616 78.24 144.306 77.625 144.306 76.68C144.306 75.735 143.616 75.09 142.708 75.09C141.808 75.09 141.118 75.735 141.118 76.68C141.118 77.625 141.808 78.24 142.708 78.24Z" fill="white"/>
<path d="M166.094 78.24C167.002 78.24 167.692 77.625 167.692 76.68C167.692 75.735 167.002 75.09 166.094 75.09C165.194 75.09 164.504 75.735 164.504 76.68C164.504 77.625 165.194 78.24 166.094 78.24Z" fill="white"/>
<path d="M189.48 78.24C190.387 78.24 191.077 77.625 191.077 76.68C191.077 75.735 190.387 75.09 189.48 75.09C188.58 75.09 187.89 75.735 187.89 76.68C187.89 77.625 188.58 78.24 189.48 78.24Z" fill="white"/>
<path d="M212.866 78.24C213.773 78.24 214.463 77.625 214.463 76.68C214.463 75.735 213.773 75.09 212.866 75.09C211.966 75.09 211.276 75.735 211.276 76.68C211.276 77.625 211.966 78.24 212.866 78.24Z" fill="white"/>
<path d="M236.252 78.24C237.159 78.24 237.849 77.625 237.849 76.68C237.849 75.735 237.159 75.09 236.252 75.09C235.352 75.09 234.662 75.735 234.662 76.68C234.662 77.625 235.352 78.24 236.252 78.24Z" fill="white"/>
<path d="M259.638 78.24C260.545 78.24 261.235 77.625 261.235 76.68C261.235 75.735 260.545 75.09 259.638 75.09C258.738 75.09 258.048 75.735 258.048 76.68C258.048 77.625 258.738 78.24 259.638 78.24Z" fill="white"/>
<path d="M283.024 78.24C283.931 78.24 284.621 77.625 284.621 76.68C284.621 75.735 283.931 75.09 283.024 75.09C282.124 75.09 281.434 75.735 281.434 76.68C281.434 77.625 282.124 78.24 283.024 78.24Z" fill="white"/>
<path d="M2.39249 103.24C3.29999 103.24 3.98999 102.625 3.98999 101.68C3.98999 100.735 3.29999 100.09 2.39249 100.09C1.49249 100.09 0.80249 100.735 0.80249 101.68C0.80249 102.625 1.49249 103.24 2.39249 103.24Z" fill="white"/>
<path d="M25.7784 103.24C26.6859 103.24 27.3759 102.625 27.3759 101.68C27.3759 100.735 26.6859 100.09 25.7784 100.09C24.8784 100.09 24.1884 100.735 24.1884 101.68C24.1884 102.625 24.8784 103.24 25.7784 103.24Z" fill="white"/>
<path d="M49.1644 103.24C50.0719 103.24 50.7619 102.625 50.7619 101.68C50.7619 100.735 50.0719 100.09 49.1644 100.09C48.2644 100.09 47.5744 100.735 47.5744 101.68C47.5744 102.625 48.2644 103.24 49.1644 103.24Z" fill="white"/>
<path d="M72.5503 103.24C73.4578 103.24 74.1478 102.625 74.1478 101.68C74.1478 100.735 73.4578 100.09 72.5503 100.09C71.6503 100.09 70.9603 100.735 70.9603 101.68C70.9603 102.625 71.6503 103.24 72.5503 103.24Z" fill="white"/>
<path d="M95.9362 103.24C96.8437 103.24 97.5337 102.625 97.5337 101.68C97.5337 100.735 96.8437 100.09 95.9362 100.09C95.0362 100.09 94.3462 100.735 94.3462 101.68C94.3462 102.625 95.0362 103.24 95.9362 103.24Z" fill="white"/>
<path d="M119.322 103.24C120.23 103.24 120.92 102.625 120.92 101.68C120.92 100.735 120.23 100.09 119.322 100.09C118.422 100.09 117.732 100.735 117.732 101.68C117.732 102.625 118.422 103.24 119.322 103.24Z" fill="white"/>
<path d="M142.708 103.24C143.616 103.24 144.306 102.625 144.306 101.68C144.306 100.735 143.616 100.09 142.708 100.09C141.808 100.09 141.118 100.735 141.118 101.68C141.118 102.625 141.808 103.24 142.708 103.24Z" fill="white"/>
<path d="M166.094 103.24C167.002 103.24 167.692 102.625 167.692 101.68C167.692 100.735 167.002 100.09 166.094 100.09C165.194 100.09 164.504 100.735 164.504 101.68C164.504 102.625 165.194 103.24 166.094 103.24Z" fill="white"/>
<path d="M189.48 103.24C190.387 103.24 191.077 102.625 191.077 101.68C191.077 100.735 190.387 100.09 189.48 100.09C188.58 100.09 187.89 100.735 187.89 101.68C187.89 102.625 188.58 103.24 189.48 103.24Z" fill="white"/>
<path d="M212.866 103.24C213.773 103.24 214.463 102.625 214.463 101.68C214.463 100.735 213.773 100.09 212.866 100.09C211.966 100.09 211.276 100.735 211.276 101.68C211.276 102.625 211.966 103.24 212.866 103.24Z" fill="white"/>
<path d="M236.252 103.24C237.159 103.24 237.849 102.625 237.849 101.68C237.849 100.735 237.159 100.09 236.252 100.09C235.352 100.09 234.662 100.735 234.662 101.68C234.662 102.625 235.352 103.24 236.252 103.24Z" fill="white"/>
<path d="M259.638 103.24C260.545 103.24 261.235 102.625 261.235 101.68C261.235 100.735 260.545 100.09 259.638 100.09C258.738 100.09 258.048 100.735 258.048 101.68C258.048 102.625 258.738 103.24 259.638 103.24Z" fill="white"/>
<path d="M283.024 103.24C283.931 103.24 284.621 102.625 284.621 101.68C284.621 100.735 283.931 100.09 283.024 100.09C282.124 100.09 281.434 100.735 281.434 101.68C281.434 102.625 282.124 103.24 283.024 103.24Z" fill="white"/>
<path d="M2.39249 128.24C3.29999 128.24 3.98999 127.625 3.98999 126.68C3.98999 125.735 3.29999 125.09 2.39249 125.09C1.49249 125.09 0.80249 125.735 0.80249 126.68C0.80249 127.625 1.49249 128.24 2.39249 128.24Z" fill="white"/>
<path d="M25.7784 128.24C26.6859 128.24 27.3759 127.625 27.3759 126.68C27.3759 125.735 26.6859 125.09 25.7784 125.09C24.8784 125.09 24.1884 125.735 24.1884 126.68C24.1884 127.625 24.8784 128.24 25.7784 128.24Z" fill="white"/>
<path d="M49.1644 128.24C50.0719 128.24 50.7619 127.625 50.7619 126.68C50.7619 125.735 50.0719 125.09 49.1644 125.09C48.2644 125.09 47.5744 125.735 47.5744 126.68C47.5744 127.625 48.2644 128.24 49.1644 128.24Z" fill="white"/>
<path d="M72.5503 128.24C73.4578 128.24 74.1478 127.625 74.1478 126.68C74.1478 125.735 73.4578 125.09 72.5503 125.09C71.6503 125.09 70.9603 125.735 70.9603 126.68C70.9603 127.625 71.6503 128.24 72.5503 128.24Z" fill="white"/>
<path d="M95.9362 128.24C96.8437 128.24 97.5337 127.625 97.5337 126.68C97.5337 125.735 96.8437 125.09 95.9362 125.09C95.0362 125.09 94.3462 125.735 94.3462 126.68C94.3462 127.625 95.0362 128.24 95.9362 128.24Z" fill="white"/>
<path d="M119.322 128.24C120.23 128.24 120.92 127.625 120.92 126.68C120.92 125.735 120.23 125.09 119.322 125.09C118.422 125.09 117.732 125.735 117.732 126.68C117.732 127.625 118.422 128.24 119.322 128.24Z" fill="white"/>
<path d="M142.708 128.24C143.616 128.24 144.306 127.625 144.306 126.68C144.306 125.735 143.616 125.09 142.708 125.09C141.808 125.09 141.118 125.735 141.118 126.68C141.118 127.625 141.808 128.24 142.708 128.24Z" fill="white"/>
<path d="M166.094 128.24C167.002 128.24 167.692 127.625 167.692 126.68C167.692 125.735 167.002 125.09 166.094 125.09C165.194 125.09 164.504 125.735 164.504 126.68C164.504 127.625 165.194 128.24 166.094 128.24Z" fill="white"/>
<path d="M189.48 128.24C190.387 128.24 191.077 127.625 191.077 126.68C191.077 125.735 190.387 125.09 189.48 125.09C188.58 125.09 187.89 125.735 187.89 126.68C187.89 127.625 188.58 128.24 189.48 128.24Z" fill="white"/>
<path d="M212.866 128.24C213.773 128.24 214.463 127.625 214.463 126.68C214.463 125.735 213.773 125.09 212.866 125.09C211.966 125.09 211.276 125.735 211.276 126.68C211.276 127.625 211.966 128.24 212.866 128.24Z" fill="white"/>
<path d="M236.252 128.24C237.159 128.24 237.849 127.625 237.849 126.68C237.849 125.735 237.159 125.09 236.252 125.09C235.352 125.09 234.662 125.735 234.662 126.68C234.662 127.625 235.352 128.24 236.252 128.24Z" fill="white"/>
<path d="M259.638 128.24C260.545 128.24 261.235 127.625 261.235 126.68C261.235 125.735 260.545 125.09 259.638 125.09C258.738 125.09 258.048 125.735 258.048 126.68C258.048 127.625 258.738 128.24 259.638 128.24Z" fill="white"/>
<path d="M283.024 128.24C283.931 128.24 284.621 127.625 284.621 126.68C284.621 125.735 283.931 125.09 283.024 125.09C282.124 125.09 281.434 125.735 281.434 126.68C281.434 127.625 282.124 128.24 283.024 128.24Z" fill="white"/>
<path d="M2.39249 153.24C3.29999 153.24 3.98999 152.625 3.98999 151.68C3.98999 150.735 3.29999 150.09 2.39249 150.09C1.49249 150.09 0.80249 150.735 0.80249 151.68C0.80249 152.625 1.49249 153.24 2.39249 153.24Z" fill="white"/>
<path d="M25.7784 153.24C26.6859 153.24 27.3759 152.625 27.3759 151.68C27.3759 150.735 26.6859 150.09 25.7784 150.09C24.8784 150.09 24.1884 150.735 24.1884 151.68C24.1884 152.625 24.8784 153.24 25.7784 153.24Z" fill="white"/>
<path d="M49.1644 153.24C50.0719 153.24 50.7619 152.625 50.7619 151.68C50.7619 150.735 50.0719 150.09 49.1644 150.09C48.2644 150.09 47.5744 150.735 47.5744 151.68C47.5744 152.625 48.2644 153.24 49.1644 153.24Z" fill="white"/>
<path d="M72.5503 153.24C73.4578 153.24 74.1478 152.625 74.1478 151.68C74.1478 150.735 73.4578 150.09 72.5503 150.09C71.6503 150.09 70.9603 150.735 70.9603 151.68C70.9603 152.625 71.6503 153.24 72.5503 153.24Z" fill="white"/>
<path d="M95.9362 153.24C96.8437 153.24 97.5337 152.625 97.5337 151.68C97.5337 150.735 96.8437 150.09 95.9362 150.09C95.0362 150.09 94.3462 150.735 94.3462 151.68C94.3462 152.625 95.0362 153.24 95.9362 153.24Z" fill="white"/>
<path d="M119.322 153.24C120.23 153.24 120.92 152.625 120.92 151.68C120.92 150.735 120.23 150.09 119.322 150.09C118.422 150.09 117.732 150.735 117.732 151.68C117.732 152.625 118.422 153.24 119.322 153.24Z" fill="white"/>
<path d="M142.708 153.24C143.616 153.24 144.306 152.625 144.306 151.68C144.306 150.735 143.616 150.09 142.708 150.09C141.808 150.09 141.118 150.735 141.118 151.68C141.118 152.625 141.808 153.24 142.708 153.24Z" fill="white"/>
<path d="M166.094 153.24C167.002 153.24 167.692 152.625 167.692 151.68C167.692 150.735 167.002 150.09 166.094 150.09C165.194 150.09 164.504 150.735 164.504 151.68C164.504 152.625 165.194 153.24 166.094 153.24Z" fill="white"/>
<path d="M189.48 153.24C190.387 153.24 191.077 152.625 191.077 151.68C191.077 150.735 190.387 150.09 189.48 150.09C188.58 150.09 187.89 150.735 187.89 151.68C187.89 152.625 188.58 153.24 189.48 153.24Z" fill="white"/>
<path d="M212.866 153.24C213.773 153.24 214.463 152.625 214.463 151.68C214.463 150.735 213.773 150.09 212.866 150.09C211.966 150.09 211.276 150.735 211.276 151.68C211.276 152.625 211.966 153.24 212.866 153.24Z" fill="white"/>
<path d="M236.252 153.24C237.159 153.24 237.849 152.625 237.849 151.68C237.849 150.735 237.159 150.09 236.252 150.09C235.352 150.09 234.662 150.735 234.662 151.68C234.662 152.625 235.352 153.24 236.252 153.24Z" fill="white"/>
<path d="M259.638 153.24C260.545 153.24 261.235 152.625 261.235 151.68C261.235 150.735 260.545 150.09 259.638 150.09C258.738 150.09 258.048 150.735 258.048 151.68C258.048 152.625 258.738 153.24 259.638 153.24Z" fill="white"/>
<path d="M283.024 153.24C283.931 153.24 284.621 152.625 284.621 151.68C284.621 150.735 283.931 150.09 283.024 150.09C282.124 150.09 281.434 150.735 281.434 151.68C281.434 152.625 282.124 153.24 283.024 153.24Z" fill="white"/>
<path d="M2.39249 178.24C3.29999 178.24 3.98999 177.625 3.98999 176.68C3.98999 175.735 3.29999 175.09 2.39249 175.09C1.49249 175.09 0.80249 175.735 0.80249 176.68C0.80249 177.625 1.49249 178.24 2.39249 178.24Z" fill="white"/>
<path d="M25.7784 178.24C26.6859 178.24 27.3759 177.625 27.3759 176.68C27.3759 175.735 26.6859 175.09 25.7784 175.09C24.8784 175.09 24.1884 175.735 24.1884 176.68C24.1884 177.625 24.8784 178.24 25.7784 178.24Z" fill="white"/>
<path d="M49.1644 178.24C50.0719 178.24 50.7619 177.625 50.7619 176.68C50.7619 175.735 50.0719 175.09 49.1644 175.09C48.2644 175.09 47.5744 175.735 47.5744 176.68C47.5744 177.625 48.2644 178.24 49.1644 178.24Z" fill="white"/>
<path d="M72.5503 178.24C73.4578 178.24 74.1478 177.625 74.1478 176.68C74.1478 175.735 73.4578 175.09 72.5503 175.09C71.6503 175.09 70.9603 175.735 70.9603 176.68C70.9603 177.625 71.6503 178.24 72.5503 178.24Z" fill="white"/>
<path d="M95.9362 178.24C96.8437 178.24 97.5337 177.625 97.5337 176.68C97.5337 175.735 96.8437 175.09 95.9362 175.09C95.0362 175.09 94.3462 175.735 94.3462 176.68C94.3462 177.625 95.0362 178.24 95.9362 178.24Z" fill="white"/>
<path d="M119.322 178.24C120.23 178.24 120.92 177.625 120.92 176.68C120.92 175.735 120.23 175.09 119.322 175.09C118.422 175.09 117.732 175.735 117.732 176.68C117.732 177.625 118.422 178.24 119.322 178.24Z" fill="white"/>
<path d="M142.708 178.24C143.616 178.24 144.306 177.625 144.306 176.68C144.306 175.735 143.616 175.09 142.708 175.09C141.808 175.09 141.118 175.735 141.118 176.68C141.118 177.625 141.808 178.24 142.708 178.24Z" fill="white"/>
<path d="M166.094 178.24C167.002 178.24 167.692 177.625 167.692 176.68C167.692 175.735 167.002 175.09 166.094 175.09C165.194 175.09 164.504 175.735 164.504 176.68C164.504 177.625 165.194 178.24 166.094 178.24Z" fill="white"/>
<path d="M189.48 178.24C190.387 178.24 191.077 177.625 191.077 176.68C191.077 175.735 190.387 175.09 189.48 175.09C188.58 175.09 187.89 175.735 187.89 176.68C187.89 177.625 188.58 178.24 189.48 178.24Z" fill="white"/>
<path d="M212.866 178.24C213.773 178.24 214.463 177.625 214.463 176.68C214.463 175.735 213.773 175.09 212.866 175.09C211.966 175.09 211.276 175.735 211.276 176.68C211.276 177.625 211.966 178.24 212.866 178.24Z" fill="white"/>
<path d="M236.252 178.24C237.159 178.24 237.849 177.625 237.849 176.68C237.849 175.735 237.159 175.09 236.252 175.09C235.352 175.09 234.662 175.735 234.662 176.68C234.662 177.625 235.352 178.24 236.252 178.24Z" fill="white"/>
<path d="M259.638 178.24C260.545 178.24 261.235 177.625 261.235 176.68C261.235 175.735 260.545 175.09 259.638 175.09C258.738 175.09 258.048 175.735 258.048 176.68C258.048 177.625 258.738 178.24 259.638 178.24Z" fill="white"/>
<path d="M283.024 178.24C283.931 178.24 284.621 177.625 284.621 176.68C284.621 175.735 283.931 175.09 283.024 175.09C282.124 175.09 281.434 175.735 281.434 176.68C281.434 177.625 282.124 178.24 283.024 178.24Z" fill="white"/>
<path d="M2.39249 203.24C3.29999 203.24 3.98999 202.625 3.98999 201.68C3.98999 200.735 3.29999 200.09 2.39249 200.09C1.49249 200.09 0.80249 200.735 0.80249 201.68C0.80249 202.625 1.49249 203.24 2.39249 203.24Z" fill="white"/>
<path d="M25.7784 203.24C26.6859 203.24 27.3759 202.625 27.3759 201.68C27.3759 200.735 26.6859 200.09 25.7784 200.09C24.8784 200.09 24.1884 200.735 24.1884 201.68C24.1884 202.625 24.8784 203.24 25.7784 203.24Z" fill="white"/>
<path d="M49.1644 203.24C50.0719 203.24 50.7619 202.625 50.7619 201.68C50.7619 200.735 50.0719 200.09 49.1644 200.09C48.2644 200.09 47.5744 200.735 47.5744 201.68C47.5744 202.625 48.2644 203.24 49.1644 203.24Z" fill="white"/>
<path d="M72.5503 203.24C73.4578 203.24 74.1478 202.625 74.1478 201.68C74.1478 200.735 73.4578 200.09 72.5503 200.09C71.6503 200.09 70.9603 200.735 70.9603 201.68C70.9603 202.625 71.6503 203.24 72.5503 203.24Z" fill="white"/>
<path d="M95.9362 203.24C96.8437 203.24 97.5337 202.625 97.5337 201.68C97.5337 200.735 96.8437 200.09 95.9362 200.09C95.0362 200.09 94.3462 200.735 94.3462 201.68C94.3462 202.625 95.0362 203.24 95.9362 203.24Z" fill="white"/>
<path d="M119.322 203.24C120.23 203.24 120.92 202.625 120.92 201.68C120.92 200.735 120.23 200.09 119.322 200.09C118.422 200.09 117.732 200.735 117.732 201.68C117.732 202.625 118.422 203.24 119.322 203.24Z" fill="white"/>
<path d="M142.708 203.24C143.616 203.24 144.306 202.625 144.306 201.68C144.306 200.735 143.616 200.09 142.708 200.09C141.808 200.09 141.118 200.735 141.118 201.68C141.118 202.625 141.808 203.24 142.708 203.24Z" fill="white"/>
<path d="M166.094 203.24C167.002 203.24 167.692 202.625 167.692 201.68C167.692 200.735 167.002 200.09 166.094 200.09C165.194 200.09 164.504 200.735 164.504 201.68C164.504 202.625 165.194 203.24 166.094 203.24Z" fill="white"/>
<path d="M189.48 203.24C190.387 203.24 191.077 202.625 191.077 201.68C191.077 200.735 190.387 200.09 189.48 200.09C188.58 200.09 187.89 200.735 187.89 201.68C187.89 202.625 188.58 203.24 189.48 203.24Z" fill="white"/>
<path d="M212.866 203.24C213.773 203.24 214.463 202.625 214.463 201.68C214.463 200.735 213.773 200.09 212.866 200.09C211.966 200.09 211.276 200.735 211.276 201.68C211.276 202.625 211.966 203.24 212.866 203.24Z" fill="white"/>
<path d="M236.252 203.24C237.159 203.24 237.849 202.625 237.849 201.68C237.849 200.735 237.159 200.09 236.252 200.09C235.352 200.09 234.662 200.735 234.662 201.68C234.662 202.625 235.352 203.24 236.252 203.24Z" fill="white"/>
<path d="M259.638 203.24C260.545 203.24 261.235 202.625 261.235 201.68C261.235 200.735 260.545 200.09 259.638 200.09C258.738 200.09 258.048 200.735 258.048 201.68C258.048 202.625 258.738 203.24 259.638 203.24Z" fill="white"/>
<path d="M283.024 203.24C283.931 203.24 284.621 202.625 284.621 201.68C284.621 200.735 283.931 200.09 283.024 200.09C282.124 200.09 281.434 200.735 281.434 201.68C281.434 202.625 282.124 203.24 283.024 203.24Z" fill="white"/>
<path d="M2.39249 228.24C3.29999 228.24 3.98999 227.625 3.98999 226.68C3.98999 225.735 3.29999 225.09 2.39249 225.09C1.49249 225.09 0.80249 225.735 0.80249 226.68C0.80249 227.625 1.49249 228.24 2.39249 228.24Z" fill="white"/>
<path d="M25.7784 228.24C26.6859 228.24 27.3759 227.625 27.3759 226.68C27.3759 225.735 26.6859 225.09 25.7784 225.09C24.8784 225.09 24.1884 225.735 24.1884 226.68C24.1884 227.625 24.8784 228.24 25.7784 228.24Z" fill="white"/>
<path d="M49.1644 228.24C50.0719 228.24 50.7619 227.625 50.7619 226.68C50.7619 225.735 50.0719 225.09 49.1644 225.09C48.2644 225.09 47.5744 225.735 47.5744 226.68C47.5744 227.625 48.2644 228.24 49.1644 228.24Z" fill="white"/>
<path d="M72.5503 228.24C73.4578 228.24 74.1478 227.625 74.1478 226.68C74.1478 225.735 73.4578 225.09 72.5503 225.09C71.6503 225.09 70.9603 225.735 70.9603 226.68C70.9603 227.625 71.6503 228.24 72.5503 228.24Z" fill="white"/>
<path d="M95.9362 228.24C96.8437 228.24 97.5337 227.625 97.5337 226.68C97.5337 225.735 96.8437 225.09 95.9362 225.09C95.0362 225.09 94.3462 225.735 94.3462 226.68C94.3462 227.625 95.0362 228.24 95.9362 228.24Z" fill="white"/>
<path d="M119.322 228.24C120.23 228.24 120.92 227.625 120.92 226.68C120.92 225.735 120.23 225.09 119.322 225.09C118.422 225.09 117.732 225.735 117.732 226.68C117.732 227.625 118.422 228.24 119.322 228.24Z" fill="white"/>
<path d="M142.708 228.24C143.616 228.24 144.306 227.625 144.306 226.68C144.306 225.735 143.616 225.09 142.708 225.09C141.808 225.09 141.118 225.735 141.118 226.68C141.118 227.625 141.808 228.24 142.708 228.24Z" fill="white"/>
<path d="M166.094 228.24C167.002 228.24 167.692 227.625 167.692 226.68C167.692 225.735 167.002 225.09 166.094 225.09C165.194 225.09 164.504 225.735 164.504 226.68C164.504 227.625 165.194 228.24 166.094 228.24Z" fill="white"/>
<path d="M189.48 228.24C190.387 228.24 191.077 227.625 191.077 226.68C191.077 225.735 190.387 225.09 189.48 225.09C188.58 225.09 187.89 225.735 187.89 226.68C187.89 227.625 188.58 228.24 189.48 228.24Z" fill="white"/>
<path d="M212.866 228.24C213.773 228.24 214.463 227.625 214.463 226.68C214.463 225.735 213.773 225.09 212.866 225.09C211.966 225.09 211.276 225.735 211.276 226.68C211.276 227.625 211.966 228.24 212.866 228.24Z" fill="white"/>
<path d="M236.252 228.24C237.159 228.24 237.849 227.625 237.849 226.68C237.849 225.735 237.159 225.09 236.252 225.09C235.352 225.09 234.662 225.735 234.662 226.68C234.662 227.625 235.352 228.24 236.252 228.24Z" fill="white"/>
<path d="M259.638 228.24C260.545 228.24 261.235 227.625 261.235 226.68C261.235 225.735 260.545 225.09 259.638 225.09C258.738 225.09 258.048 225.735 258.048 226.68C258.048 227.625 258.738 228.24 259.638 228.24Z" fill="white"/>
<path d="M283.024 228.24C283.931 228.24 284.621 227.625 284.621 226.68C284.621 225.735 283.931 225.09 283.024 225.09C282.124 225.09 281.434 225.735 281.434 226.68C281.434 227.625 282.124 228.24 283.024 228.24Z" fill="white"/>
<path d="M2.39249 253.24C3.29999 253.24 3.98999 252.625 3.98999 251.68C3.98999 250.735 3.29999 250.09 2.39249 250.09C1.49249 250.09 0.80249 250.735 0.80249 251.68C0.80249 252.625 1.49249 253.24 2.39249 253.24Z" fill="white"/>
<path d="M25.7784 253.24C26.6859 253.24 27.3759 252.625 27.3759 251.68C27.3759 250.735 26.6859 250.09 25.7784 250.09C24.8784 250.09 24.1884 250.735 24.1884 251.68C24.1884 252.625 24.8784 253.24 25.7784 253.24Z" fill="white"/>
<path d="M49.1644 253.24C50.0719 253.24 50.7619 252.625 50.7619 251.68C50.7619 250.735 50.0719 250.09 49.1644 250.09C48.2644 250.09 47.5744 250.735 47.5744 251.68C47.5744 252.625 48.2644 253.24 49.1644 253.24Z" fill="white"/>
<path d="M72.5503 253.24C73.4578 253.24 74.1478 252.625 74.1478 251.68C74.1478 250.735 73.4578 250.09 72.5503 250.09C71.6503 250.09 70.9603 250.735 70.9603 251.68C70.9603 252.625 71.6503 253.24 72.5503 253.24Z" fill="white"/>
<path d="M95.9362 253.24C96.8437 253.24 97.5337 252.625 97.5337 251.68C97.5337 250.735 96.8437 250.09 95.9362 250.09C95.0362 250.09 94.3462 250.735 94.3462 251.68C94.3462 252.625 95.0362 253.24 95.9362 253.24Z" fill="white"/>
<path d="M119.322 253.24C120.23 253.24 120.92 252.625 120.92 251.68C120.92 250.735 120.23 250.09 119.322 250.09C118.422 250.09 117.732 250.735 117.732 251.68C117.732 252.625 118.422 253.24 119.322 253.24Z" fill="white"/>
<path d="M142.708 253.24C143.616 253.24 144.306 252.625 144.306 251.68C144.306 250.735 143.616 250.09 142.708 250.09C141.808 250.09 141.118 250.735 141.118 251.68C141.118 252.625 141.808 253.24 142.708 253.24Z" fill="white"/>
<path d="M166.094 253.24C167.002 253.24 167.692 252.625 167.692 251.68C167.692 250.735 167.002 250.09 166.094 250.09C165.194 250.09 164.504 250.735 164.504 251.68C164.504 252.625 165.194 253.24 166.094 253.24Z" fill="white"/>
<path d="M189.48 253.24C190.387 253.24 191.077 252.625 191.077 251.68C191.077 250.735 190.387 250.09 189.48 250.09C188.58 250.09 187.89 250.735 187.89 251.68C187.89 252.625 188.58 253.24 189.48 253.24Z" fill="white"/>
<path d="M212.866 253.24C213.773 253.24 214.463 252.625 214.463 251.68C214.463 250.735 213.773 250.09 212.866 250.09C211.966 250.09 211.276 250.735 211.276 251.68C211.276 252.625 211.966 253.24 212.866 253.24Z" fill="white"/>
<path d="M236.252 253.24C237.159 253.24 237.849 252.625 237.849 251.68C237.849 250.735 237.159 250.09 236.252 250.09C235.352 250.09 234.662 250.735 234.662 251.68C234.662 252.625 235.352 253.24 236.252 253.24Z" fill="white"/>
<path d="M259.638 253.24C260.545 253.24 261.235 252.625 261.235 251.68C261.235 250.735 260.545 250.09 259.638 250.09C258.738 250.09 258.048 250.735 258.048 251.68C258.048 252.625 258.738 253.24 259.638 253.24Z" fill="white"/>
<path d="M283.024 253.24C283.931 253.24 284.621 252.625 284.621 251.68C284.621 250.735 283.931 250.09 283.024 250.09C282.124 250.09 281.434 250.735 281.434 251.68C281.434 252.625 282.124 253.24 283.024 253.24Z" fill="white"/>
</svg>
