<svg xmlns="http://www.w3.org/2000/svg" width="70" height="70" viewBox="0 0 70 70" fill="none" class=" replaced-svg">
<g clip-path="url(#clip0)">
<path d="M16 32.7V35.6V44.1C16 46.4 17.7 48.3 19.9 48.7V49C19.9 50.7 21.3 52 23 52H23.9C25.6 52 27 50.6 27 49V35.6C27 33.9 25.6 32.6 23.9 32.6H23C21.3 32.6 19.9 34 19.9 35.6V35.7H18V32.8C18 25.1 23.6 18.2 31.2 16.5L30.8 14.5C22.2 16.4 16 24.1 16 32.7ZM21.9 48.9V35.7V35.6C21.9 35 22.4 34.6 23 34.6H23.9C24.5 34.6 25 35.1 25 35.6V49C25 49.6 24.5 50 23.9 50H23C22.4 50 21.9 49.5 21.9 48.9ZM19.9 37.7V46.8C18.8 46.5 18 45.4 18 44.2V37.7H19.9Z" fill="#161616"></path>
<path d="M36 0H34V70H36V0Z" fill="#161616"></path>
<path d="M50.1003 48.8C52.3003 48.4 54.0003 46.5 54.0003 44.2V35.7V32.8C54.0003 24.1 47.8003 16.5 39.2003 14.5L38.8003 16.5C46.4003 18.1 52.0003 25 52.0003 32.7V35.6H50.1003C50.0003 33.9 48.5003 32.5 46.7003 32.5H46.4003C44.5003 32.5 43.0003 34 43.0003 35.9V48.6C43.0003 50.5 44.5003 52 46.4003 52H46.7003C48.5003 52 50.0003 50.6 50.1003 48.8ZM50.1003 37.7H52.0003V44.2C52.0003 45.4 51.2003 46.4 50.1003 46.8V37.7ZM48.1003 48.6C48.1003 49.4 47.5003 50 46.7003 50H46.4003C45.6003 50 45.0003 49.4 45.0003 48.6V35.9C45.0003 35.1 45.6003 34.5 46.4003 34.5H46.7003C47.5003 34.5 48.1003 35.1 48.1003 35.9V48.6Z" fill="#161616"></path>
<path d="M2.00008 35.5C1.80008 19.7 12.8001 5.89995 28.2001 2.69995L27.8001 0.699951C11.5001 4.19995 -0.199916 18.7999 8.3951e-05 35.5C0.200084 51.7 11.9001 65.9 27.8001 69.2L28.2001 67.2C13.2001 64.2 2.20008 50.8 2.00008 35.5Z" fill="#161616"></path>
<path d="M68.0002 33.7L70.0002 33.6C70.0002 32.6 69.9002 31.5 69.7002 30.5L67.7002 30.8C67.9002 31.7 67.9002 32.7 68.0002 33.7Z" fill="#161616"></path>
<path d="M64.5001 16.1001C63.9001 15.2001 63.3001 14.4001 62.7001 13.6001L61.1001 14.8001C61.7001 15.6001 62.3001 16.4001 62.8001 17.2001L64.5001 16.1001Z" fill="#161616"></path>
<path d="M45.2003 1.49995C44.2003 1.19995 43.2003 0.899951 42.2003 0.699951L41.8003 2.69995C42.7003 2.89995 43.7003 3.09995 44.6003 3.39995L45.2003 1.49995Z" fill="#161616"></path>
<path d="M50.8999 3.8C49.9999 3.3 48.9999 2.9 48.0999 2.5L47.3999 4.4C48.2999 4.8 49.1999 5.2 49.9999 5.6L50.8999 3.8Z" fill="#161616"></path>
<path d="M65.5002 22.2999L67.3002 21.5C66.9002 20.6 66.5002 19.6 66.0002 18.7L64.2002 19.6C64.7002 20.6 65.1002 21.4999 65.5002 22.2999Z" fill="#161616"></path>
<path d="M67.2 27.9L69.2 27.5C69 26.5 68.7 25.5 68.4 24.5L66.5 25.1C66.8 26 67 27 67.2 27.9Z" fill="#161616"></path>
<path d="M61 55.4L62.6 56.6C63.2 55.8 63.8 55 64.4 54.1L62.7 53C62.1 53.8 61.6 54.6 61 55.4Z" fill="#161616"></path>
<path d="M64.1001 50.5L65.9001 51.4001C66.4001 50.5001 66.8001 49.6 67.2001 48.6L65.4001 47.8C65.0001 48.8 64.6001 49.6 64.1001 50.5Z" fill="#161616"></path>
<path d="M66.3999 45.1L68.2999 45.7001C68.5999 44.7001 68.8999 43.7001 69.0999 42.7001L67.0999 42.3C66.9999 43.3 66.6999 44.2 66.3999 45.1Z" fill="#161616"></path>
<path d="M58.5002 9.1001L57.2002 10.6001C57.9002 11.3001 58.6002 11.9001 59.3002 12.6001L60.8002 11.2001C60.0002 10.5001 59.3002 9.8001 58.5002 9.1001Z" fill="#161616"></path>
<path d="M67.7002 39.5001L69.7002 39.8001C69.8002 38.8001 69.9002 37.8001 70.0002 36.7001L68.0002 36.6001C67.9002 37.5001 67.8002 38.5001 67.7002 39.5001Z" fill="#161616"></path>
<path d="M47.1001 65.7L47.8001 67.6C48.8001 67.2 49.7001 66.8 50.6001 66.3L49.7001 64.5C48.9001 64.9 48.0001 65.3 47.1001 65.7Z" fill="#161616"></path>
<path d="M52.3003 63.1L53.3003 64.8C54.2003 64.3 55.0003 63.7 55.9003 63.1L54.7003 61.5C54.0003 62 53.2003 62.6 52.3003 63.1Z" fill="#161616"></path>
<path d="M41.8003 67.3L42.2003 69.3C43.1003 69.1 44.0003 68.9 45.0003 68.6L44.4003 66.7C43.5003 66.9 42.7003 67.1 41.8003 67.3Z" fill="#161616"></path>
<path d="M57 59.6L58.3 61.1C59.1 60.4 59.8 59.7 60.5 58.9L59 57.5C58.4 58.3 57.7 59 57 59.6Z" fill="#161616"></path>
<path d="M52.5 7.00005C53.3 7.50005 54.1 8.10005 54.9 8.70005L56.1 7.10005C55.3 6.50005 54.4 5.90005 53.6 5.30005L52.5 7.00005Z" fill="#161616"></path>
</g>
<defs>
<clipPath id="clip0">
<rect width="70" height="70" fill="white"></rect>
</clipPath>
</defs>
</svg>