<svg xmlns="http://www.w3.org/2000/svg" width="70" height="70" viewBox="0 0 70 70" fill="none" class=" replaced-svg">
<path d="M45.8 21H45.3C42 21 38.9 21.7 36.1 22.9V5H28.1V0H8V5H0V70H36V68.1C38.8 69.3 42 70 45.2 70H45.7C59.1 70 70 59 70 45.5C70 32 59.1 21 45.8 21ZM10 2H26V5H10V2ZM34 68H2V7H34V23.8C29.7 26.1 26.1 29.6 23.9 34H20.3V14.9L8.4 38H13.8V57.1L21.2 42.7C21.1 43.6 21 44.5 21 45.5C21 54.9 26.3 63.1 34 67.2V68ZM11.6 36L18.2 23.1V36H22.3L15.7 48.9V36H11.6ZM45.8 68H45.3C33 68 23 57.9 23 45.5C23 33.1 33 23 45.2 23H45.7C58 23 68 33.1 68 45.5C68 57.9 58 68 45.8 68Z" fill="#161616"></path>
<path d="M37.031 41.154H41.045V39.066H34.925V46.176H36.437C36.887 45.6 37.337 45.366 37.967 45.366C38.975 45.366 39.749 46.176 39.749 47.22C39.749 48.264 38.993 49.056 37.985 49.056C37.175 49.056 36.653 48.642 36.311 47.742L34.295 48.498C34.637 49.344 34.853 49.704 35.285 50.154C36.005 50.856 36.977 51.234 38.057 51.234C40.361 51.234 41.999 49.542 41.999 47.166C41.999 45.024 40.505 43.404 38.525 43.404C38.003 43.404 37.589 43.494 37.031 43.728V41.154ZM43.799 42.666V51H46.085V46.05C46.085 44.898 46.535 44.304 47.399 44.304C48.227 44.304 48.659 44.898 48.659 46.05V51H50.945V45.978C50.945 44.916 51.431 44.304 52.277 44.304C53.141 44.304 53.555 44.844 53.555 45.978V51H55.841V45.546C55.841 44.286 55.679 43.71 55.175 43.152C54.707 42.648 54.005 42.378 53.159 42.378C51.971 42.378 51.197 42.81 50.639 43.764C50.243 42.864 49.451 42.378 48.371 42.378C47.309 42.378 46.607 42.792 46.085 43.71V42.666H43.799Z" fill="#161616"></path>
</svg>