<svg xmlns="http://www.w3.org/2000/svg" width="70" height="70" viewBox="0 0 70 70" fill="none" class=" replaced-svg">
<path d="M52.1 34H51.9C42.03 34 34 42.075 34 52C34 61.925 42.03 70 51.9 70H52.1C61.97 70 70 61.925 70 52C70 42.075 61.97 34 52.1 34ZM52.1 68H51.9C43.132 68 36 60.822 36 52C36 43.178 43.133 36 51.9 36H52.1C60.868 36 68 43.178 68 52C68 60.822 60.867 68 52.1 68Z" fill="black"></path>
<path d="M65 18V5H52V7H63V18H65Z" fill="black"></path>
<path d="M5 52V65H18V63H7V52H5Z" fill="black"></path>
<path d="M25.479 18.8781V17.1221L14.479 11.1221L13 12.0001V24.0001L14.479 24.8781L25.479 18.8781ZM15 13.6851L22.912 18.0001L15 22.3151V13.6851Z" fill="black"></path>
<path d="M17.901 36H18.1C27.97 36 36 27.925 36 17.999C36 8.07399 27.97 0 18.099 0H17.9C8.03 0 0 8.07399 0 17.999C0 27.925 8.03 36 17.901 36ZM17.9 2H18.099C26.867 2 34 9.17699 34 17.999C34 26.822 26.867 34 18.1 34H17.901C9.133 34 2 26.822 2 17.999C2 9.17699 9.133 2 17.9 2Z" fill="black"></path>
<path d="M54.128 56.34C52.733 55.733 51.426 54.859 50.284 53.718C49.14 52.575 48.264 51.265 47.656 49.867L49.435 49.78L49.029 44.003L44.025 44C44.008 44.293 44 44.589 44 44.886C44 53.233 50.77 60 59.121 60C59.416 60 59.709 59.991 60 59.974V54.949L54.227 54.544L54.128 56.34Z" fill="black"></path>
</svg>