<svg xmlns="http://www.w3.org/2000/svg" width="70" height="70" viewBox="0 0 70 70" fill="none" class=" replaced-svg">
<path d="M70 35.8C70 16.1 54.3 0 35 0C15.7 0 0 16.1 0 35.8V42H34.9C37.7 42 40 39.8 40 37V35.8C42.3 35.2 44 33 44 30.5C44 27.5 41.5 25 38.5 25H15.5C12.5 25 10 27.5 10 30.5C10 33.4 12.2 35.7 15 36V40H2V35.8C2 17.2 16.8 2 35 2C53.2 2 68 17.2 68 35.8V41.6L56 53.6L53.2 50.8L53.4 50.6C54.5 49.5 55.1 48.1 55.1 46.5C55.1 45 54.5 43.5 53.4 42.4C51.1 40.2 47.5 40.2 45.2 42.4L27.9 59.8C25.7 62 25.7 65.7 27.9 68C29 69.1 30.4 69.7 32 69.7C33.6 69.7 35 69.1 36.1 68L36.3 67.8L37 68.5C37.9 69.4 39.2 69.9 40.5 69.9C41.8 69.9 43.1 69.4 44 68.5L70 42.4V35.8ZM12 30.5C12 28.6 13.6 27 15.5 27H38.6C40.5 27 42.1 28.6 42.1 30.5C42.1 32.4 40.4 34 38.5 34H15.5C13.6 34 12 32.4 12 30.5ZM17 36H38V37C38 38.6 36.6 40 34.9 40H17V36ZM34.6 66.5C33.1 68 30.7 68 29.3 66.5C27.8 65 27.8 62.6 29.3 61.2L46.7 43.8C47.4 43.1 48.4 42.7 49.4 42.7C50.4 42.7 51.3 43.1 52.1 43.8C53.6 45.3 53.6 47.7 52.1 49.1L43.4 57.8L34.9 66.3L34.6 66.5ZM42.6 67C41.5 68.1 39.6 68.1 38.4 67L37.7 66.3L44.8 59.2L51.9 52.1L54.7 54.9L42.6 67Z" fill="#161616"></path>
</svg>