<svg xmlns="http://www.w3.org/2000/svg" width="70" height="70" viewBox="0 0 70 70" fill="none" class=" replaced-svg">
<path d="M37.0644 48.5731V51.0391H39.2784V48.5731H40.3764V46.5931H39.2784V38.9971H36.8664L32.6544 46.6471V48.5731H37.0644ZM37.0644 46.5931H34.5444L37.0644 42.1291V46.5931ZM49.2684 42.7411C49.2684 41.3011 48.9624 40.4731 48.1884 39.7891C47.5044 39.1771 46.5684 38.8531 45.4704 38.8531C44.2644 38.8531 43.2204 39.2491 42.5724 39.9691C41.9964 40.5991 41.7624 41.4811 41.7624 43.0291V46.8631C41.7624 48.7351 41.9964 49.5991 42.6624 50.2651C43.3104 50.9131 44.3364 51.2731 45.5424 51.2731C46.6944 51.2731 47.6124 50.9491 48.2784 50.3191C48.9804 49.6531 49.2684 48.7891 49.2684 47.4031V42.7411ZM44.0844 43.0291C44.0844 42.2731 44.1564 41.9131 44.3364 41.6071C44.5524 41.2291 45.0024 41.0131 45.5424 41.0131C45.9924 41.0131 46.3884 41.1751 46.6404 41.4631C46.9104 41.7691 47.0004 42.1111 47.0004 42.9211V47.0971C47.0004 47.8711 46.9284 48.2311 46.7484 48.5371C46.5144 48.9151 46.0464 49.1491 45.5424 49.1491C45.0564 49.1491 44.5704 48.9331 44.3364 48.5731C44.1204 48.2851 44.0844 48.0691 44.0844 47.1151V43.0291ZM53.4444 39.0331H51.1584V51.0391H53.4444V46.0711C53.4444 45.4231 53.5524 45.0991 53.9124 44.7571C54.1824 44.4871 54.5424 44.3431 54.9384 44.3431C55.6944 44.3431 56.1804 44.9371 56.1804 45.8731V51.0391H58.4664V45.5491C58.4664 44.3431 58.2684 43.6951 57.7284 43.1911C57.2424 42.7231 56.4504 42.4171 55.7304 42.4171C54.8304 42.4171 54.1464 42.7771 53.4444 43.6051V39.0331Z" fill="black"></path>
<path d="M45.8 21H45.3C42 21 38.9 21.7 36.1 22.9V5H28.1V0H8V5H0V70H36V68.1C38.8 69.3 42 70 45.2 70H45.7C59.1 70 70 59 70 45.5C70 32 59.1 21 45.8 21ZM10 2H26V5H10V2ZM34 68H2V7H34V23.8C30.4 25.7 27.3 28.6 25 32H8V34H23.8C22.7 36.2 21.8 38.5 21.4 41H8V43H21.1C21 43.8 21 44.7 21 45.5C21 47 21.1 48.5 21.4 50H8V52H21.9C22.6 54.5 23.7 56.9 25.1 59H8V61H26.5C28.6 63.5 31.1 65.7 34 67.2V68ZM45.8 68H45.3C33 68 23 57.9 23 45.5C23 33.1 33 23 45.2 23H45.7C58 23 68 33.1 68 45.5C68 57.9 58 68 45.8 68Z" fill="#161616"></path>
<path d="M28 23H8V25H28V23Z" fill="#161616"></path>
<path d="M28 14H8V16H28V14Z" fill="#161616"></path>
</svg>